<svg width="24" height="24" viewBox="0 0 24 24" fill="none" xmlns="http://www.w3.org/2000/svg">
<path d="M9.5 12L8.96967 11.4697C8.82902 11.6103 8.75 11.8011 8.75 12C8.75 12.1989 8.82902 12.3897 8.96967 12.5303L9.5 12ZM13.9697 17.5303C14.2626 17.8232 14.7374 17.8232 15.0303 17.5303C15.3232 17.2374 15.3232 16.7626 15.0303 16.4697L13.9697 17.5303ZM15.0303 7.53033C15.3232 7.23744 15.3232 6.76256 15.0303 6.46967C14.7374 6.17678 14.2626 6.17678 13.9697 6.46967L15.0303 7.53033ZM8.96967 12.5303L13.9697 17.5303L15.0303 16.4697L10.0303 11.4697L8.96967 12.5303ZM10.0303 12.5303L12.5303 10.0303L11.4697 8.96967L8.96967 11.4697L10.0303 12.5303ZM12.5303 10.0303L15.0303 7.53033L13.9697 6.46967L11.4697 8.96967L12.5303 10.0303Z" fill="black"/>
<path d="M9.5 12L8.96967 11.4697C8.82902 11.6103 8.75 11.8011 8.75 12C8.75 12.1989 8.82902 12.3897 8.96967 12.5303L9.5 12ZM13.9697 17.5303C14.2626 17.8232 14.7374 17.8232 15.0303 17.5303C15.3232 17.2374 15.3232 16.7626 15.0303 16.4697L13.9697 17.5303ZM12.5303 10.0303C12.8232 9.73744 12.8232 9.26256 12.5303 8.96967C12.2374 8.67678 11.7626 8.67678 11.4697 8.96967L12.5303 10.0303ZM8.96967 12.5303L13.9697 17.5303L15.0303 16.4697L10.0303 11.4697L8.96967 12.5303ZM10.0303 12.5303L12.5303 10.0303L11.4697 8.96967L8.96967 11.4697L10.0303 12.5303Z" fill="black"/>
</svg>
