<svg width="18" height="18" viewBox="0 0 18 18" fill="none" xmlns="http://www.w3.org/2000/svg">
<path d="M14.25 8.38161C14.25 9.8929 13.6436 11.5777 12.647 12.8799C11.6469 14.1867 10.3442 15 9 15V16.5C10.9695 16.5 12.6668 15.3223 13.8382 13.7915C15.0132 12.2562 15.75 10.2567 15.75 8.38161H14.25ZM9 15C7.65579 15 6.35307 14.1867 5.35296 12.8799C4.35637 11.5777 3.75 9.8929 3.75 8.38161H2.25C2.25 10.2567 2.98677 12.2562 4.16176 13.7915C5.33322 15.3223 7.0305 16.5 9 16.5V15ZM3.75 8.38161C3.75 5.39401 6.11576 3 9 3V1.5C5.25682 1.5 2.25 4.59643 2.25 8.38161H3.75ZM9 3C11.8842 3 14.25 5.39401 14.25 8.38161H15.75C15.75 4.59643 12.7432 1.5 9 1.5V3Z" fill="black"/>
<path d="M7.125 7.875C7.125 6.83947 7.96447 6 9 6C10.0355 6 10.875 6.83947 10.875 7.875C10.875 8.91053 10.0355 9.75 9 9.75C7.96447 9.75 7.125 8.91053 7.125 7.875Z" fill="#2D366F" stroke="#1CB1FA" stroke-width="1.5"/>
</svg>
