<svg width="19" height="19" viewBox="0 0 19 19" fill="none" xmlns="http://www.w3.org/2000/svg">
<path d="M10.5962 4.19802C11.3196 4.19802 11.9115 3.61335 11.9115 2.89068C11.9115 2.16801 11.3196 1.58334 10.5962 1.58334C9.86904 1.58334 9.28077 2.16801 9.28077 2.89068C9.28077 3.61335 9.86904 4.19802 10.5962 4.19802ZM10.6838 8.70108H14.25V7.39374H11.601L10.1394 4.97516C9.92385 4.61201 9.52558 4.37233 9.0725 4.37233C8.94827 4.37233 8.82769 4.39049 8.71442 4.42318L4.75 5.65062V9.42738H6.06538V6.76549L7.60365 6.28977L4.75 17.4167H6.06538L8.16269 11.5264L9.86538 13.7852V17.4167H11.1808V12.7647L9.36115 9.46733L9.89827 7.38285L10.6838 8.70108Z" fill="#2D366F"/>
</svg>
